<svg width="194" height="53" viewBox="0 0 194 53" fill="none" xmlns="http://www.w3.org/2000/svg">
<g clip-path="url(#clip0_382_3)">
<path d="M25.6143 -0.0320416C25.7327 -0.0331409 25.8511 -0.0342402 25.973 -0.0353728C26.3524 -0.0380993 26.7318 -0.0391141 27.1112 -0.0394356C27.3053 -0.0396739 27.3053 -0.0396739 27.5033 -0.039917C29.3715 -0.0383623 31.1525 0.0293296 32.9736 0.473213C33.1705 0.517133 33.3673 0.561054 33.5701 0.606305C38.4711 1.78576 42.5795 4.19679 46.2591 7.57143C46.3738 7.67411 46.4886 7.7768 46.6068 7.88259C51.0252 12.0064 54.0164 18.4444 54.2907 24.4374C54.2949 24.6533 54.2981 24.8693 54.3005 25.0853C54.3021 25.2028 54.3037 25.3202 54.3054 25.4413C54.3831 32.6915 52.5219 39.5283 47.3752 44.9319C47.0488 45.2739 47.0488 45.2739 46.7356 45.6744C45.8322 46.774 44.53 47.8567 43.1478 48.2777C39.5765 48.216 36.4376 44.7863 34.1103 42.4377C32.9284 41.2257 31.8309 39.9703 30.8032 38.6293C30.5445 38.2939 30.2818 37.9618 30.0187 37.6298C29.8298 37.3901 29.6409 37.1504 29.4522 36.9107C29.3637 36.7993 29.2753 36.6879 29.1842 36.5731C28.4545 35.6389 27.9055 34.8483 27.9572 33.6358C28.0651 32.9356 28.3399 32.4226 28.9063 31.9796C29.2416 31.7693 29.5848 31.5798 29.9324 31.3899C32.3552 29.9811 34.452 28.5967 35.3746 25.869C35.5029 24.1591 35.3333 22.8848 34.4142 21.4129C33.1013 20.0205 30.8854 19.6016 29.0514 19.5041C28.7348 19.4945 28.4182 19.4868 28.1016 19.4807C27.9499 19.4758 27.7982 19.4709 27.6418 19.4659C26.9197 19.4658 26.4099 19.4803 25.8351 19.9391C25.2525 20.5589 25.2648 20.8925 25.241 21.7279C25.2378 21.8372 25.2345 21.9465 25.2312 22.0591C25.2207 22.4233 25.2116 22.7874 25.2025 23.1515C25.1992 23.2779 25.1958 23.4042 25.1924 23.5344C25.1225 26.1895 25.1042 28.8442 25.0985 31.5001C25.0967 32.3052 25.0935 33.1103 25.09 33.9154C25.0802 36.1993 25.0714 38.4831 25.0661 40.767C25.0632 42.0402 25.0586 43.3133 25.0521 44.5865C25.0487 45.2558 25.0462 45.925 25.0459 46.5943C25.0455 47.2192 25.043 47.8441 25.0387 48.469C25.0376 48.6975 25.0373 48.926 25.0378 49.1546C25.0384 49.4668 25.0358 49.7791 25.0331 50.0914C25.0325 50.2658 25.032 50.4401 25.0315 50.6198C24.9479 51.2862 24.7114 51.82 24.2444 52.313C23.1444 53.1419 22.1508 53.1065 20.8086 53C16.1933 52.3866 12.0076 49.9128 8.64922 46.8297C8.37803 46.5825 8.10305 46.3537 7.81325 46.1285C7.2259 45.6269 6.7391 45.0699 6.24261 44.4821C6.14191 44.3652 6.04122 44.2483 5.93748 44.1278C2.63088 40.1905 2.63088 40.1905 2.72115 38.0149C2.95635 37.2114 3.40513 36.8257 4.12173 36.4246C4.72118 36.1836 5.29304 36.1252 5.92247 36.2798C6.651 36.6836 7.09893 37.122 7.58316 37.7881C7.70655 37.9555 7.82993 38.1228 7.95706 38.2952C8.1882 38.6159 8.41915 38.9367 8.64985 39.2577C9.38682 40.2747 10.1746 41.2068 11.0446 42.1161C11.1389 42.2192 11.2332 42.3223 11.3303 42.4285C13.1075 44.2953 15.8984 46.5367 18.5677 46.6905C19.0262 46.5038 19.2711 46.3599 19.5468 45.9542C19.7422 45.4458 19.7288 45.0047 19.7295 44.4611C19.7301 44.3477 19.7307 44.2342 19.7313 44.1174C19.7329 43.7372 19.7322 43.357 19.7316 42.9768C19.7323 42.7042 19.7331 42.4316 19.7341 42.159C19.7359 41.5717 19.7368 40.9845 19.737 40.3972C19.7373 39.4678 19.7402 38.5383 19.7435 37.6089C19.7514 35.2995 19.7563 32.9901 19.7597 30.6807C19.7624 28.8874 19.766 27.094 19.773 25.3007C19.7765 24.3778 19.7778 23.4548 19.7774 22.5318C19.7777 21.956 19.7799 21.3801 19.7827 20.8042C19.7836 20.5383 19.7837 20.2724 19.7829 20.0065C19.7787 18.4609 19.7816 17.0073 20.5985 15.6358C21.6764 14.6597 22.9137 14.5098 24.3301 14.3542C24.5492 14.3276 24.5492 14.3276 24.7727 14.3006C28.9084 13.8755 33.558 14.0952 36.9853 16.6709C39.1336 18.449 40.2014 20.3943 40.7668 23.0791C41.0351 26.1981 40.4168 28.8433 38.3727 31.3002C37.6006 32.1971 36.7846 33.0094 35.8642 33.7615C35.3589 34.2367 35.0942 34.6822 34.9444 35.3531C35.1192 36.3236 35.7119 36.948 36.335 37.6994C36.4052 37.7846 36.4755 37.8699 36.5478 37.9577C39.0701 41.0113 39.0701 41.0113 42.5776 42.747C43.2713 42.7246 43.8854 42.6017 44.4984 42.2738C44.5405 42.1872 44.5826 42.1006 44.6259 42.0113C44.8454 41.5915 45.1317 41.258 45.4402 40.8987C49.4372 36.2215 51.2417 30.1825 50.811 24.1142C50.2409 17.5923 47.0643 12.1865 42.0403 7.94043C41.2053 7.26988 40.2942 6.70429 39.3763 6.15178C39.234 6.06574 39.234 6.06574 39.0888 5.97795C36.9426 4.70557 34.3569 3.70813 31.8532 3.47024C31.7022 3.45506 31.7022 3.45506 31.5482 3.43958C26.5093 2.9611 21.9437 4.37887 17.9874 7.47284C15.6446 9.41775 13.8912 11.6795 12.4852 14.3542C12.4314 14.4562 12.3775 14.5582 12.3221 14.6632C10.9398 17.3217 10.1967 20.0895 9.52955 22.9942C8.99626 25.2732 8.32674 27.087 6.24511 28.3781C5.27052 28.8992 3.9914 28.8771 2.93812 28.595C1.54853 28.0164 0.910563 27.3301 0.317037 25.9824C-0.917791 22.6082 0.907574 18.2555 2.361 15.1922C3.05595 13.7718 3.85431 12.4681 4.80201 11.1994C4.86812 11.1091 4.93422 11.0188 5.00233 10.9258C9.32244 5.06691 15.8537 1.36158 23.0495 0.157737C23.9079 0.0367463 24.7467 -0.0265934 25.6143 -0.0320416Z" fill="#fff"/>
<path d="M177.833 21.4524C179.207 21.4524 180.58 21.4524 181.995 21.4524C182.196 22.0262 182.396 22.6 182.603 23.1912C182.799 23.7509 182.995 24.3105 183.191 24.8702C183.326 25.2572 183.462 25.6442 183.597 26.0313C183.792 26.5898 183.988 27.1482 184.183 27.7065C184.243 27.8777 184.303 28.049 184.364 28.2255C184.422 28.3896 184.48 28.5537 184.539 28.7227C184.589 28.865 184.639 29.0072 184.69 29.1537C184.95 29.8524 185.236 30.5412 185.517 31.2322C186.626 28.0048 187.735 24.7775 188.878 21.4524C190.251 21.4524 191.625 21.4524 193.04 21.4524C193.201 22.0897 193.254 22.6939 193.291 23.3457C193.299 23.4725 193.307 23.5993 193.315 23.73C193.341 24.1497 193.366 24.5694 193.39 24.9892C193.408 25.2828 193.426 25.5765 193.444 25.8701C193.481 26.487 193.517 27.1038 193.554 27.7207C193.6 28.5045 193.647 29.2883 193.695 30.072C193.732 30.6797 193.768 31.2873 193.804 31.895C193.822 32.1835 193.839 32.472 193.857 32.7605C193.964 34.5157 194.018 36.2563 194 38.0149C192.679 38.0149 191.359 38.0149 189.998 38.0149C189.977 37.6711 189.956 37.3272 189.934 36.973C189.913 36.6383 189.892 36.3037 189.87 35.969C189.856 35.7373 189.841 35.5055 189.827 35.2737C189.807 34.9397 189.785 34.6057 189.764 34.2717C189.751 34.071 189.739 33.8702 189.726 33.6634C189.684 33.0798 189.684 33.0798 189.518 32.3363C188.884 34.2102 188.25 36.0842 187.597 38.0149C186.224 38.0149 184.851 38.0149 183.436 38.0149C182.749 36.0889 182.062 34.1629 181.355 32.1786C181.052 32.4769 181.138 32.9946 181.115 33.3937C181.108 33.5001 181.102 33.6065 181.095 33.7162C181.074 34.058 181.054 34.3999 181.035 34.7418C181.015 35.0815 180.995 35.4211 180.974 35.7607C180.956 36.0705 180.938 36.3804 180.92 36.6903C180.875 37.2262 180.875 37.2262 180.715 38.0149C179.394 38.0149 178.073 38.0149 176.713 38.0149C176.827 34.9103 177.015 31.8129 177.218 28.7129C177.265 28.0023 177.31 27.2916 177.355 26.5809C177.391 26.0292 177.426 25.4775 177.463 24.9258C177.48 24.6634 177.496 24.401 177.513 24.1385C177.536 23.7752 177.56 23.4119 177.584 23.0487C177.598 22.8426 177.611 22.6365 177.625 22.4241C177.673 21.9256 177.673 21.9256 177.833 21.4524Z" fill="#fff"/>
<path d="M172.711 22.872C174.578 24.3049 175.862 26.0546 176.233 28.3928C176.403 31.0418 175.902 33.2851 174.132 35.353C172.686 36.8746 170.715 37.9193 168.589 38.0524C166.011 38.1192 163.737 37.4676 161.787 35.7178C160.041 33.8612 159.318 31.6328 159.381 29.1298C159.562 26.7986 160.595 24.9425 162.307 23.3452C165.246 20.9523 169.57 20.7014 172.711 22.872ZM164.228 27.1309C163.532 28.2683 163.301 29.2736 163.427 30.6012C163.741 31.7632 164.493 32.8473 165.528 33.4959C166.678 34.0751 167.825 34.3029 169.1 33.9691C170.451 33.4276 171.451 32.527 172.071 31.2321C172.442 30.0373 172.333 28.7897 171.812 27.6602C171.178 26.5957 170.315 25.8945 169.132 25.4944C167.224 25.0488 165.424 25.5751 164.228 27.1309Z" fill="#fff"/>
<path d="M76.9918 21.4524C83.9144 21.4524 83.9144 21.4524 86.1449 23.5128C87.3029 24.7301 87.8725 26.1014 87.9363 27.7718C87.8722 29.4347 87.1793 30.8758 85.9555 32.0208C86.1589 32.5513 86.3904 33.0304 86.6876 33.5157C86.7676 33.6467 86.8476 33.7778 86.9301 33.9129C87.0145 34.0498 87.099 34.1867 87.186 34.3278C87.3148 34.5383 87.3148 34.5383 87.4462 34.7531C87.9945 35.6462 88.5543 36.5297 89.1393 37.4C89.3168 37.6994 89.3168 37.6994 89.3168 38.0149C88.6764 38.0542 88.0365 38.0826 87.3952 38.1015C87.1775 38.1094 86.96 38.1202 86.7427 38.1339C84.9468 38.2444 84.9468 38.2444 84.3033 37.7011C84.0105 37.2931 83.7799 36.8847 83.5545 36.4375C83.415 36.2161 83.2737 35.9957 83.1299 35.777C83.0074 35.5769 82.8854 35.3764 82.7641 35.1756C82.7005 35.0725 82.6368 34.9694 82.5712 34.8632C82.1139 34.1107 82.1139 34.1107 82.1139 33.756C81.5592 33.834 81.5592 33.834 80.9934 33.9137C80.9934 35.2671 80.9934 36.6205 80.9934 38.0149C79.6729 38.0149 78.3523 38.0149 76.9918 38.0149C76.9918 32.5493 76.9918 27.0836 76.9918 21.4524ZM80.9934 25.5536C80.9934 27.0111 80.9934 28.4686 80.9934 29.9702C82.2213 29.6677 82.817 29.4984 83.6245 28.5802C83.9431 27.9396 83.9238 27.6526 83.7145 26.9732C83.1934 26.1879 82.6974 25.8398 81.7937 25.5536C81.5296 25.5536 81.2655 25.5536 80.9934 25.5536Z" fill="#fff"/>
<path d="M107.404 21.4524C110.996 21.4524 114.588 21.4524 118.289 21.4524C118.289 22.7537 118.289 24.0551 118.289 25.3958C116.017 25.3958 113.746 25.3958 111.406 25.3958C111.406 26.1766 111.406 26.9575 111.406 27.7619C113.255 27.7619 115.103 27.7619 117.008 27.7619C117.008 29.0633 117.008 30.3646 117.008 31.7054C115.159 31.7054 113.311 31.7054 111.406 31.7054C111.406 32.4862 111.406 33.267 111.406 34.0714C113.677 34.0714 115.949 34.0714 118.289 34.0714C118.289 35.3728 118.289 36.6741 118.289 38.0149C114.697 38.0149 111.105 38.0149 107.404 38.0149C107.404 32.5493 107.404 27.0836 107.404 21.4524Z" fill="#fff"/>
<path d="M132.535 21.4524C136.127 21.4524 139.718 21.4524 143.419 21.4524C143.419 22.7537 143.419 24.0551 143.419 25.3958C141.148 25.3958 138.876 25.3958 136.536 25.3958C136.536 26.1766 136.536 26.9575 136.536 27.7619C138.332 27.7619 140.128 27.7619 141.979 27.7619C141.979 29.0633 141.979 30.3646 141.979 31.7054C140.183 31.7054 138.387 31.7054 136.536 31.7054C136.536 32.4862 136.536 33.267 136.536 34.0714C138.808 34.0714 141.079 34.0714 143.419 34.0714C143.419 35.3728 143.419 36.6741 143.419 38.0149C139.827 38.0149 136.235 38.0149 132.535 38.0149C132.535 32.5493 132.535 27.0836 132.535 21.4524Z" fill="#fff"/>
<path d="M157.809 22.7993C158.203 23.0695 158.582 23.3506 158.946 23.6607C158.853 24.2204 158.653 24.4784 158.245 24.8708C158.137 24.9756 158.029 25.0803 157.918 25.1882C157.805 25.2957 157.692 25.4033 157.575 25.5141C157.461 25.6241 157.347 25.7341 157.23 25.8475C156.949 26.1186 156.667 26.3887 156.384 26.6577C155.878 26.4103 155.393 26.1411 154.909 25.8536C153.955 25.3776 152.717 25.4252 151.692 25.6263C150.556 25.9988 149.773 26.694 149.202 27.7224C148.638 28.9501 148.557 30.0525 149.011 31.3289C149.561 32.5432 150.344 33.2388 151.582 33.7559C152.936 34.1655 154.191 33.9201 155.424 33.2827C155.641 33.1298 155.856 32.9733 156.064 32.8095C156.807 33.1403 157.302 33.65 157.875 34.2094C157.98 34.308 158.086 34.4067 158.194 34.5083C158.293 34.6044 158.392 34.7006 158.493 34.7997C158.584 34.8869 158.675 34.9741 158.768 35.064C158.946 35.3333 158.946 35.3333 158.913 35.6646C158.549 36.519 157.271 37.0543 156.454 37.4332C154.369 38.2643 151.938 38.3112 149.822 37.5416C147.654 36.6075 146.121 35.0984 145.124 32.9814C144.231 30.6315 144.382 28.122 145.414 25.8505C146.468 23.9009 148.201 22.5036 150.302 21.7678C152.898 21.0194 155.523 21.3538 157.809 22.7993Z" fill="#fff"/>
<path d="M70.269 21.1369C71.5895 21.1369 72.9101 21.1369 74.2706 21.1369C74.2815 22.6316 74.2903 24.1262 74.2955 25.6209C74.298 26.3151 74.3014 27.0093 74.3068 27.7034C74.3121 28.3744 74.3149 29.0453 74.3162 29.7162C74.3171 29.9712 74.3188 30.2261 74.3214 30.481C74.3441 32.7939 74.0227 34.4406 72.4599 36.2305C70.8339 37.6092 69.3605 38.1472 67.2171 38.0685C65.589 37.9299 64.2575 37.2123 63.066 36.122C61.8637 34.6562 61.4653 33.414 61.4653 31.5476C62.7859 31.5476 64.1064 31.5476 65.467 31.5476C65.6254 32.0161 65.7839 32.4846 65.9472 32.9673C66.3687 33.4657 66.6045 33.709 67.2277 33.9137C68.2546 33.998 68.796 33.8941 69.6287 33.2827C70.0747 32.5735 70.1706 32.0285 70.1781 31.2008C70.1797 31.0914 70.1814 30.982 70.183 30.8694C70.1878 30.5109 70.1893 30.1525 70.1908 29.794C70.1935 29.5443 70.1964 29.2945 70.1995 29.0448C70.2071 28.3898 70.2119 27.7348 70.2161 27.0797C70.2208 26.4104 70.2283 25.741 70.2355 25.0717C70.2493 23.7601 70.2598 22.4485 70.269 21.1369Z" fill="#fff"/>
<path d="M95.2393 21.4524C98.6727 21.4524 102.106 21.4524 105.644 21.4524C105.644 22.7537 105.644 24.0551 105.644 25.3958C104.587 25.3958 103.531 25.3958 102.442 25.3958C102.442 29.5601 102.442 33.7244 102.442 38.0149C101.122 38.0149 99.8011 38.0149 98.4406 38.0149C98.4406 33.8506 98.4406 29.6863 98.4406 25.3958C97.3841 25.3958 96.3277 25.3958 95.2393 25.3958C95.2393 24.0945 95.2393 22.7932 95.2393 21.4524Z" fill="#fff"/>
<path d="M120.69 21.4524C122.01 21.4524 123.331 21.4524 124.691 21.4524C124.691 25.6167 124.691 29.781 124.691 34.0714C126.699 34.0714 128.706 34.0714 130.774 34.0714C130.774 35.3728 130.774 36.6741 130.774 38.0149C127.446 38.0149 124.118 38.0149 120.69 38.0149C120.69 32.5493 120.69 27.0836 120.69 21.4524Z" fill="#fff"/>
</g>
<defs>
<clipPath id="clip0_382_3">
<rect width="194" height="53" fill="white"/>
</clipPath>
</defs>
</svg>
